<svg height="512" viewBox="0 0 64 64" width="512" xmlns="http://www.w3.org/2000/svg" xmlns:xlink="http://www.w3.org/1999/xlink"><linearGradient id="New_Gradient_Swatch_2" gradientUnits="userSpaceOnUse" x1="19.5" x2="19.5" y1="1.306" y2="59.129"><stop offset="0" stop-color="#fc5c7d"/><stop offset=".129" stop-color="#f35e85"/><stop offset=".343" stop-color="#d9659b"/><stop offset=".616" stop-color="#b070bf"/><stop offset=".934" stop-color="#777ff0"/><stop offset="1" stop-color="#6a82fb"/></linearGradient><linearGradient id="New_Gradient_Swatch_2-2" x1="11" x2="11" xlink:href="#New_Gradient_Swatch_2" y1="1.306" y2="59.129"/><linearGradient id="New_Gradient_Swatch_2-3" x1="15" x2="15" xlink:href="#New_Gradient_Swatch_2" y1="1.306" y2="59.129"/><linearGradient id="New_Gradient_Swatch_2-4" x1="19" x2="19" xlink:href="#New_Gradient_Swatch_2" y1="1.306" y2="59.129"/><linearGradient id="New_Gradient_Swatch_2-5" x1="52.5" x2="52.5" xlink:href="#New_Gradient_Swatch_2" y1="1.306" y2="59.129"/><linearGradient id="New_Gradient_Swatch_2-6" x1="53" x2="53" xlink:href="#New_Gradient_Swatch_2" y1="1.306" y2="59.129"/><linearGradient id="New_Gradient_Swatch_2-7" x1="30" x2="30" xlink:href="#New_Gradient_Swatch_2" y1="1.306" y2="59.129"/><linearGradient id="New_Gradient_Swatch_2-8" x1="17" x2="17" xlink:href="#New_Gradient_Swatch_2" y1="1.306" y2="59.129"/><linearGradient id="New_Gradient_Swatch_2-9" x1="10" x2="10" xlink:href="#New_Gradient_Swatch_2" y1="1.306" y2="59.129"/><linearGradient id="New_Gradient_Swatch_2-10" x1="12" x2="12" xlink:href="#New_Gradient_Swatch_2" y1="1.306" y2="59.129"/><linearGradient id="New_Gradient_Swatch_2-11" x1="40" x2="40" xlink:href="#New_Gradient_Swatch_2" y1="1.306" y2="59.129"/><linearGradient id="New_Gradient_Swatch_2-12" x1="44" x2="44" xlink:href="#New_Gradient_Swatch_2" y1="1.306" y2="59.129"/><linearGradient id="New_Gradient_Swatch_2-13" x1="48.5" x2="48.5" xlink:href="#New_Gradient_Swatch_2" y1="1.306" y2="59.129"/><linearGradient id="New_Gradient_Swatch_2-16" x1="22" x2="22" xlink:href="#New_Gradient_Swatch_2" y1="1.306" y2="59.129"/><linearGradient id="New_Gradient_Swatch_2-17" x1="25.699" x2="25.699" xlink:href="#New_Gradient_Swatch_2" y1="1.306" y2="59.129"/><linearGradient id="New_Gradient_Swatch_2-18" x1="30.5" x2="30.5" xlink:href="#New_Gradient_Swatch_2" y1="1.306" y2="59.129"/><linearGradient id="New_Gradient_Swatch_2-19" x1="46" x2="46" xlink:href="#New_Gradient_Swatch_2" y1="1.306" y2="59.129"/><path d="m8 58v-16h-2v16a4 4 0 0 0 4 4h23v-2h-23a2 2 0 0 1 -2-2z" fill="url(#New_Gradient_Swatch_2)"/><path d="m10 10h2v2h-2z" fill="url(#New_Gradient_Swatch_2-2)"/><path d="m14 10h2v2h-2z" fill="url(#New_Gradient_Swatch_2-3)"/><path d="m18 10h2v2h-2z" fill="url(#New_Gradient_Swatch_2-4)"/><path d="m61 20h-17a1 1 0 0 0 -1 1v14a1 1 0 0 0 1 1h3v2a1 1 0 0 0 1.6.8l3.733-2.8h3.667v6h2v-6h3a1 1 0 0 0 1-1v-14a1 1 0 0 0 -1-1zm-1 14h-8a1 1 0 0 0 -.6.2l-2.4 1.8v-1a1 1 0 0 0 -1-1h-3v-12h15z" fill="url(#New_Gradient_Swatch_2-5)"/><path d="m49.475 31.851a1 1 0 0 0 .972.044l6-3a1 1 0 0 0 0-1.79l-6-3a1 1 0 0 0 -1.447.895v6a1 1 0 0 0 .475.851zm1.525-5.233 2.764 1.382-2.764 1.382z" fill="url(#New_Gradient_Swatch_2-6)"/><path d="m16.4 42.8a1 1 0 0 0 .6.2 1 1 0 0 0 1-1v-2h3a1 1 0 0 0 1-1v-12a1 1 0 0 0 -1-1h-13v-10h48v2h2v-8a4 4 0 0 0 -4-4h-44a4 4 0 0 0 -4 4v16h-3a1 1 0 0 0 -1 1v12a1 1 0 0 0 1 1h9.667zm-6.4-34.8h44a2 2 0 0 1 2 2v4h-48v-4a2 2 0 0 1 2-2zm-6 20h16v10h-3a1 1 0 0 0 -1 1v1l-2.4-1.8a1 1 0 0 0 -.6-.2h-9z" fill="url(#New_Gradient_Swatch_2-7)"/><path d="m16 30h2v2h-2z" fill="url(#New_Gradient_Swatch_2-8)"/><path d="m6 30h8v2h-8z" fill="url(#New_Gradient_Swatch_2-9)"/><path d="m6 34h12v2h-12z" fill="url(#New_Gradient_Swatch_2-10)"/><path d="m39 56h2v2h-2z" fill="url(#New_Gradient_Swatch_2-11)"/><path d="m43 56h2v2h-2z" fill="url(#New_Gradient_Swatch_2-12)"/><path d="m61 44h-25a1 1 0 0 0 -1 1v16a1 1 0 0 0 1 1h25a1 1 0 0 0 1-1v-16a1 1 0 0 0 -1-1zm-24 2h23v6h-23zm23 14h-23v-6h23z" fill="url(#New_Gradient_Swatch_2-13)"/><path d="m39 48h2v2h-2z" fill="url(#New_Gradient_Swatch_2-11)"/><path d="m43 48h2v2h-2z" fill="url(#New_Gradient_Swatch_2-12)"/><path d="m25.55 45.593a1 1 0 0 0 .169 1.075 5 5 0 1 1 -7.438 0 1 1 0 0 0 -.744-1.668h-4.537v-3h-2v4a1 1 0 0 0 1 1h3.681a6.989 6.989 0 0 0 5.507 9.954 7.35 7.35 0 0 0 .8.044 7 7 0 0 0 7.012-6.998 6.948 6.948 0 0 0 -.68-3h4.68v-2h-6.537a1 1 0 0 0 -.913.593z" fill="url(#New_Gradient_Swatch_2-16)"/><path d="m38 37.708v4.292h2v-5.81a1 1 0 0 0 -1.5-.865 4.958 4.958 0 0 1 -3.356.6 5.052 5.052 0 0 1 -4.112-4.359 4.993 4.993 0 0 1 7.468-4.891 1 1 0 0 0 1.5-.865v-5.81a1 1 0 0 0 -1-1h-21a7.012 7.012 0 0 0 -6.6 4.667l1.887.666a5.008 5.008 0 0 1 4.713-3.333h20v3.3a7 7 0 0 0 -8.957 7.493 7 7 0 0 0 8.957 5.915z" fill="url(#New_Gradient_Swatch_2-17)"/><path d="m18 2h25v2h-25z" fill="url(#New_Gradient_Swatch_2-18)"/><path d="m45 2h2v2h-2z" fill="url(#New_Gradient_Swatch_2-19)"/></svg>